<svg width="256" height="256" viewBox="0 0 256 256" fill="none" xmlns="http://www.w3.org/2000/svg">
<foreignObject x="-15.36" y="24.576" width="286.72" height="207.872"><div xmlns="http://www.w3.org/1999/xhtml" style="backdrop-filter:blur(15.36px);clip-path:url(#bgblur_0_31_836_clip_path);height:100%;width:100%"></div></foreignObject><g data-figma-bg-blur-radius="30.72">
<path d="M15.36 153.228L80.8438 55.296H151.358L107.805 120.584H153.432L68.4001 201.728V153.228H15.36Z" fill="url(#paint0_linear_31_836)"/>
<path d="M206.42 106.594H135.825L170.126 55.296H240.64L206.42 106.594Z" fill="url(#paint1_linear_31_836)"/>
<path d="M15.36 153.228L80.8438 55.296H151.358L107.805 120.584H153.432L68.4001 201.728V153.228H15.36Z" stroke="url(#paint2_linear_31_836)"/>
<path d="M206.42 106.594H135.825L170.126 55.296H240.64L206.42 106.594Z" stroke="url(#paint3_linear_31_836)"/>
</g>
<g opacity="0.5">
<path d="M15.36 153.228L80.8438 55.296H151.358L107.805 120.584H153.432L68.4001 201.728V153.228H15.36Z" fill="white" fill-opacity="0.2"/>
<path d="M206.42 106.594H135.825L170.126 55.296H240.64L206.42 106.594Z" fill="white" fill-opacity="0.2"/>
<path d="M15.36 153.228L80.8438 55.296H151.358L107.805 120.584H153.432L68.4001 201.728V153.228H15.36Z" stroke="url(#paint4_linear_31_836)"/>
<path d="M206.42 106.594H135.825L170.126 55.296H240.64L206.42 106.594Z" stroke="url(#paint5_linear_31_836)"/>
</g>
<path d="M149.444 56.3204L106.953 120.016L105.891 121.609H150.875L69.4245 199.335V152.204H17.277L81.3903 56.3204H149.444ZM238.725 56.3204L205.873 105.569H137.742L170.673 56.3204H238.725Z" stroke="url(#paint6_linear_31_836)" stroke-width="2.048"/>
<defs>
<clipPath id="bgblur_0_31_836_clip_path" transform="translate(15.36 -24.576)"><path d="M15.36 153.228L80.8438 55.296H151.358L107.805 120.584H153.432L68.4001 201.728V153.228H15.36Z"/>
<path d="M206.42 106.594H135.825L170.126 55.296H240.64L206.42 106.594Z"/>
</clipPath><linearGradient id="paint0_linear_31_836" x1="128" y1="55.296" x2="128" y2="201.728" gradientUnits="userSpaceOnUse">
<stop stop-color="#FDB31E"/>
<stop offset="1" stop-color="#FF9854"/>
</linearGradient>
<linearGradient id="paint1_linear_31_836" x1="128" y1="55.296" x2="128" y2="201.728" gradientUnits="userSpaceOnUse">
<stop stop-color="#FDB31E"/>
<stop offset="1" stop-color="#FF9854"/>
</linearGradient>
<linearGradient id="paint2_linear_31_836" x1="47.7804" y1="50.0663" x2="204.487" y2="190.829" gradientUnits="userSpaceOnUse">
<stop stop-color="white" stop-opacity="0.1"/>
<stop offset="0.5" stop-color="#FAB11E"/>
<stop offset="1" stop-color="white" stop-opacity="0.523483"/>
</linearGradient>
<linearGradient id="paint3_linear_31_836" x1="47.7804" y1="50.0663" x2="204.487" y2="190.829" gradientUnits="userSpaceOnUse">
<stop stop-color="white" stop-opacity="0.1"/>
<stop offset="0.5" stop-color="#FAB11E"/>
<stop offset="1" stop-color="white" stop-opacity="0.523483"/>
</linearGradient>
<linearGradient id="paint4_linear_31_836" x1="47.7804" y1="50.0663" x2="204.487" y2="190.829" gradientUnits="userSpaceOnUse">
<stop stop-color="white" stop-opacity="0.1"/>
<stop offset="0.5" stop-color="#FAB11E"/>
<stop offset="1" stop-color="white" stop-opacity="0.523483"/>
</linearGradient>
<linearGradient id="paint5_linear_31_836" x1="47.7804" y1="50.0663" x2="204.487" y2="190.829" gradientUnits="userSpaceOnUse">
<stop stop-color="white" stop-opacity="0.1"/>
<stop offset="0.5" stop-color="#FAB11E"/>
<stop offset="1" stop-color="white" stop-opacity="0.523483"/>
</linearGradient>
<linearGradient id="paint6_linear_31_836" x1="47.7804" y1="50.0663" x2="204.487" y2="190.829" gradientUnits="userSpaceOnUse">
<stop stop-color="white" stop-opacity="0.1"/>
<stop offset="0.5" stop-color="#FAB11E"/>
<stop offset="1" stop-color="white" stop-opacity="0.523483"/>
</linearGradient>
</defs>
</svg>
