<svg width="250" height="250" viewBox="0 0 250 250" fill="none" xmlns="http://www.w3.org/2000/svg">
<g>
<path d="M15 149.637L78.949 54H147.811L105.278 117.758H149.836L66.797 197V149.637H15Z" fill="url(#paint0_linear_31_836)"/>
<path d="M201.582 104.096H132.642L166.139 54H235L201.582 104.096Z" fill="url(#paint1_linear_31_836)"/>
<path d="M15 149.637L78.949 54H147.811L105.278 117.758H149.836L66.797 197V149.637H15Z" stroke="url(#paint2_linear_31_836)"/>
<path d="M201.582 104.096H132.642L166.139 54H235L201.582 104.096Z" stroke="url(#paint3_linear_31_836)"/>
</g>
<g opacity="0.5">
<path d="M15 149.637L78.949 54H147.811L105.278 117.758H149.836L66.797 197V149.637H15Z" fill="white" fill-opacity="0.2"/>
<path d="M201.582 104.096H132.642L166.139 54H235L201.582 104.096Z" fill="white" fill-opacity="0.2"/>
<path d="M15 149.637L78.949 54H147.811L105.278 117.758H149.836L66.797 197V149.637H15Z" stroke="url(#paint4_linear_31_836)"/>
<path d="M201.582 104.096H132.642L166.139 54H235L201.582 104.096Z" stroke="url(#paint5_linear_31_836)"/>
</g>
<path d="M145.941 55L104.446 117.203L103.409 118.758H147.339L67.7969 194.663V148.637H16.8711L79.4834 55H145.941ZM233.131 55L201.047 103.096H134.514L166.673 55H233.131Z" stroke="url(#paint6_linear_31_836)" stroke-width="2"/>
<defs>
<linearGradient id="paint0_linear_31_836" x1="125" y1="54" x2="125" y2="197" gradientUnits="userSpaceOnUse">
<stop stop-color="#FDB31E"/>
<stop offset="1" stop-color="#FF9854"/>
</linearGradient>
<linearGradient id="paint1_linear_31_836" x1="125" y1="54" x2="125" y2="197" gradientUnits="userSpaceOnUse">
<stop stop-color="#FDB31E"/>
<stop offset="1" stop-color="#FF9854"/>
</linearGradient>
<linearGradient id="paint2_linear_31_836" x1="46.6605" y1="48.8929" x2="199.695" y2="186.356" gradientUnits="userSpaceOnUse">
<stop stop-color="white" stop-opacity="0.1"/>
<stop offset="0.5" stop-color="#FAB11E"/>
<stop offset="1" stop-color="white" stop-opacity="0.523483"/>
</linearGradient>
<linearGradient id="paint3_linear_31_836" x1="46.6605" y1="48.8929" x2="199.695" y2="186.356" gradientUnits="userSpaceOnUse">
<stop stop-color="white" stop-opacity="0.1"/>
<stop offset="0.5" stop-color="#FAB11E"/>
<stop offset="1" stop-color="white" stop-opacity="0.523483"/>
</linearGradient>
<linearGradient id="paint4_linear_31_836" x1="46.6605" y1="48.8929" x2="199.695" y2="186.356" gradientUnits="userSpaceOnUse">
<stop stop-color="white" stop-opacity="0.1"/>
<stop offset="0.5" stop-color="#FAB11E"/>
<stop offset="1" stop-color="white" stop-opacity="0.523483"/>
</linearGradient>
<linearGradient id="paint5_linear_31_836" x1="46.6605" y1="48.8929" x2="199.695" y2="186.356" gradientUnits="userSpaceOnUse">
<stop stop-color="white" stop-opacity="0.1"/>
<stop offset="0.5" stop-color="#FAB11E"/>
<stop offset="1" stop-color="white" stop-opacity="0.523483"/>
</linearGradient>
<linearGradient id="paint6_linear_31_836" x1="46.6605" y1="48.8929" x2="199.695" y2="186.356" gradientUnits="userSpaceOnUse">
<stop stop-color="white" stop-opacity="0.1"/>
<stop offset="0.5" stop-color="#FAB11E"/>
<stop offset="1" stop-color="white" stop-opacity="0.523483"/>
</linearGradient>
</defs>
</svg>
